<?xml version="1.0" encoding="UTF-8"?>

<svg xmlns="http://www.w3.org/2000/svg" style="display:none" aria-hidden="true">
<defs>

</defs>



<symbol id="rh-dashboard" viewBox="0 0 20 20">
  <g class="rh-stroke">
    <rect x="2.5" y="2.5" width="6" height="7" rx="1.2"></rect>
    <rect x="11.5" y="2.5" width="6" height="4" rx="1.2"></rect>
    <rect x="2.5" y="12" width="6" height="5.5" rx="1.2"></rect>
    <rect x="11.5" y="9" width="6" height="8.5" rx="1.2"></rect>
  </g>
</symbol>
<symbol id="rh-dashboard-fill" viewBox="0 0 20 20">
  <g class="rh-fill">
    <rect x="2.5" y="2.5" width="6" height="7" rx="1.2"></rect>
    <rect x="11.5" y="2.5" width="6" height="4" rx="1.2"></rect>
    <rect x="2.5" y="12" width="6" height="5.5" rx="1.2"></rect>
    <rect x="11.5" y="9" width="6" height="8.5" rx="1.2"></rect>
  </g>
</symbol>

<symbol id="rh-cabinet" viewBox="0 0 20 20">
  <g class="rh-stroke">
    <circle cx="10" cy="7" r="3"></circle>
    <path d="M3.5 17c.8-3.2 3.4-5 6.5-5s5.7 1.8 6.5 5"></path>
  </g>
</symbol>
<symbol id="rh-cabinet-fill" viewBox="0 0 20 20">
  <path class="rh-fill" d="M10 3.2a3.3 3.3 0 1 0 0 6.6 3.3 3.3 0 0 0 0-6.6zM3.5 17.5h13c.3 0 .5-.3.4-.6-.9-3-3.4-4.7-6.5-4.7-3.1 0-5.6 1.7-6.4 4.7-.1.3.2.6.5.6z"></path>
</symbol>

<symbol id="rh-tariff" viewBox="0 0 20 20">
  <g class="rh-stroke">
    <path d="M10 2.5L3 5.5v4.8c0 3.5 2.8 6.4 7 7.2 4.2-.8 7-3.7 7-7.2V5.5z"></path>
    <path d="M7.5 10l1.8 1.8L13 8"></path>
  </g>
</symbol>
<symbol id="rh-tariff-fill" viewBox="0 0 20 20">
  <path class="rh-fill" d="M10.3 2.5 3.3 5.5c-.2.1-.3.3-.3.5v4.3c0 3.5 2.8 6.4 7 7.2.1 0 .2 0 .3 0 4.1-.8 6.9-3.7 6.9-7.2V6c0-.2-.1-.4-.3-.5l-7-3c-.2-.1-.4-.1-.6 0zM8.1 9.5c.3-.3.7-.3 1 0l1.3 1.3 3-3c.3-.3.7-.3 1 0 .3.3.3.7 0 1l-3.5 3.5c-.3.3-.7.3-1 0L8.1 10.5c-.3-.3-.3-.7 0-1z"></path>
</symbol>

<symbol id="rh-topup" viewBox="0 0 20 20">
  <g class="rh-stroke">
    <rect x="2.5" y="5" width="15" height="10" rx="2"></rect>
    <path d="M2.5 9h15"></path>
    <path d="M6 12.5h3"></path>
  </g>
</symbol>
<symbol id="rh-topup-fill" viewBox="0 0 20 20">
  <path class="rh-fill" d="M2.5 6A1.5 1.5 0 0 1 4 4.5h12A1.5 1.5 0 0 1 17.5 6v.5H2.5V6zm0 2h15V14a1.5 1.5 0 0 1-1.5 1.5H4A1.5 1.5 0 0 1 2.5 14V8zm3 4.5c0-.3.2-.5.5-.5h3c.3 0 .5.2.5.5s-.2.5-.5.5H6c-.3 0-.5-.2-.5-.5z"></path>
</symbol>

<symbol id="rh-payouts" viewBox="0 0 20 20">
  <g class="rh-stroke">
    <path d="M10 3v10"></path>
    <path d="M6 9l4 4 4-4"></path>
    <path d="M3.5 17h13"></path>
  </g>
</symbol>
<symbol id="rh-payouts-fill" viewBox="0 0 20 20">
  <path class="rh-fill" d="M10 2.5c.4 0 .75.34.75.75v7.94l2.72-2.72a.75.75 0 1 1 1.06 1.06l-4 4a.75.75 0 0 1-1.06 0l-4-4a.75.75 0 1 1 1.06-1.06l2.72 2.72V3.25c0-.41.34-.75.75-.75zM3.5 16.25c0-.41.34-.75.75-.75h11.5a.75.75 0 0 1 0 1.5H4.25a.75.75 0 0 1-.75-.75z"></path>
</symbol>

<symbol id="rh-campaign" viewBox="0 0 20 20">
  <g class="rh-stroke">
    <path d="M3 10V7l12-4v14l-12-4z"></path>
    <path d="M6 11v3c0 .8.7 1.5 1.5 1.5S9 14.8 9 14v-2.3"></path>
  </g>
</symbol>
<symbol id="rh-campaign-fill" viewBox="0 0 20 20">
  <path class="rh-fill" d="M15 2.25a.75.75 0 0 0-1 .7v1.5l-9.5 3.16A1.5 1.5 0 0 0 3.5 9v1.5a1.5 1.5 0 0 0 1 1.42L5.25 12v2.25a2.25 2.25 0 1 0 4.5 0v-1.5l4.25 1.42a.75.75 0 0 0 1-.71V2.95zm-8.25 12V12.5l2 .67v1.08a1 1 0 1 1-2 0z"></path>
</symbol>

<symbol id="rh-analytics" viewBox="0 0 20 20">
  <g class="rh-stroke">
    <path d="M3 17V3"></path>
    <path d="M3 17h14"></path>
    <path d="M6 13l3-3 3 2 4-5"></path>
  </g>
</symbol>
<symbol id="rh-analytics-fill" viewBox="0 0 20 20">
  <path class="rh-fill" d="M3.75 2.5a.75.75 0 0 0-.75.75v14c0 .41.34.75.75.75h13.5a.75.75 0 0 0 0-1.5h-13V3.25a.75.75 0 0 0-.75-.75z"></path>
  <path class="rh-fill" d="m16.56 7.54-3.54 4.42-2.62-1.74a.75.75 0 0 0-.95.12l-3 3a.75.75 0 1 0 1.06 1.06l2.56-2.56 2.65 1.76a.75.75 0 0 0 .99-.15l4-5a.75.75 0 0 0-1.15-.95z"></path>
</symbol>

<symbol id="rh-placement" viewBox="0 0 20 20">
  <g class="rh-stroke">
    <rect x="2.5" y="4" width="15" height="12" rx="1.5"></rect>
    <path d="M2.5 8h15"></path>
    <path d="M5.5 6h.01M8 6h.01M10.5 6h.01"></path>
  </g>
</symbol>
<symbol id="rh-placement-fill" viewBox="0 0 20 20">
  <path class="rh-fill" d="M4 3.5A1.5 1.5 0 0 0 2.5 5v2.5h15V5A1.5 1.5 0 0 0 16 3.5H4zm1.5 1.75a.75.75 0 1 1 0 1.5.75.75 0 0 1 0-1.5zm2.5 0a.75.75 0 1 1 0 1.5.75.75 0 0 1 0-1.5zm2.5 0a.75.75 0 1 1 0 1.5.75.75 0 0 1 0-1.5zM2.5 9v6A1.5 1.5 0 0 0 4 16.5h12a1.5 1.5 0 0 0 1.5-1.5V9h-15z"></path>
</symbol>

<symbol id="rh-channels" viewBox="0 0 20 20">
  <g class="rh-stroke">
    <path d="M3 5l7-2.5L17 5v5c0 4.5-3.5 7-7 8-3.5-1-7-3.5-7-8z"></path>
    <path d="M7 10l2 2 4-4"></path>
  </g>
</symbol>
<symbol id="rh-channels-fill" viewBox="0 0 20 20">
  <path class="rh-fill" d="M9.75 2.54 2.75 5.04A.75.75 0 0 0 2.25 5.75v4.25c0 4.87 3.74 7.54 7.55 8.62a.75.75 0 0 0 .4 0c3.81-1.08 7.55-3.75 7.55-8.62V5.75a.75.75 0 0 0-.5-.71l-7-2.5a.75.75 0 0 0-.5 0zm3.78 6.02-4 4a.75.75 0 0 1-1.06 0l-2-2a.75.75 0 1 1 1.06-1.06L9 10.94l3.47-3.47a.75.75 0 1 1 1.06 1.06z"></path>
</symbol>

<symbol id="rh-docs" viewBox="0 0 20 20">
  <g class="rh-stroke">
    <path d="M5 2.5h6l4 4V17a.5.5 0 0 1-.5.5h-9A.5.5 0 0 1 5 17z"></path>
    <path d="M11 2.5V6.5h4"></path>
    <path d="M7 10h6M7 13h4"></path>
  </g>
</symbol>
<symbol id="rh-docs-fill" viewBox="0 0 20 20">
  <path class="rh-fill" d="M5.5 1.75A.75.75 0 0 0 4.75 2.5V17.5a.75.75 0 0 0 .75.75h9a.75.75 0 0 0 .75-.75V6.75l-4.5-5h-5.25zm2 8.75a.75.75 0 0 1 .75-.75h5a.75.75 0 0 1 0 1.5h-5a.75.75 0 0 1-.75-.75zm0 3a.75.75 0 0 1 .75-.75h3a.75.75 0 0 1 0 1.5h-3a.75.75 0 0 1-.75-.75zM11.75 2v4.5h4.02z"></path>
</symbol>

<symbol id="rh-referral" viewBox="0 0 20 20">
  <g class="rh-stroke">
    <circle cx="6" cy="7" r="2.5"></circle>
    <circle cx="14" cy="7" r="2.5"></circle>
    <path d="M2 16c.5-2 2-3 4-3s3.5 1 4 3"></path>
    <path d="M10 16c.5-2 2-3 4-3s3.5 1 4 3"></path>
  </g>
</symbol>
<symbol id="rh-referral-fill" viewBox="0 0 20 20">
  <path class="rh-fill" d="M6 4.25A2.75 2.75 0 1 0 6 9.75 2.75 2.75 0 0 0 6 4.25zm8 0a2.75 2.75 0 1 0 0 5.5 2.75 2.75 0 0 0 0-5.5zM6 12.25c-2.2 0-3.85 1.1-4.43 3.18a.5.5 0 0 0 .48.63h3c.2-1 .66-1.82 1.34-2.43.63-.56 1.43-.95 2.4-1.14A6.36 6.36 0 0 0 6 12.25zm8 0c-.7 0-1.3.1-1.83.26.85.44 1.54 1.12 1.96 2 .52 1.08.45 1.1 1.46 2.05H18a.5.5 0 0 0 .48-.63c-.58-2.07-2.23-3.18-4.42-3.18zm-4 1.5c-2.2 0-3.85 1.1-4.43 3.18a.5.5 0 0 0 .48.63h7.9a.5.5 0 0 0 .48-.63c-.58-2.07-2.23-3.18-4.42-3.18z"></path>
</symbol>

<symbol id="rh-feedback" viewBox="0 0 20 20">
  <g class="rh-stroke">
    <path d="M3 5a1 1 0 0 1 1-1h12a1 1 0 0 1 1 1v8a1 1 0 0 1-1 1H9l-3.5 3V14H4a1 1 0 0 1-1-1z"></path>
  </g>
</symbol>
<symbol id="rh-feedback-fill" viewBox="0 0 20 20">
  <path class="rh-fill" d="M4 3.25A1.75 1.75 0 0 0 2.25 5v8c0 .97.78 1.75 1.75 1.75h.75v2.25a.75.75 0 0 0 1.24.57L9.28 14.75H16A1.75 1.75 0 0 0 17.75 13V5A1.75 1.75 0 0 0 16 3.25H4z"></path>
</symbol>

<symbol id="rh-settings" viewBox="0 0 20 20">
  <g class="rh-stroke">
    <circle cx="10" cy="10" r="2.5"></circle>
    <path d="M15.5 10c0-.4-.05-.8-.1-1.2l1.8-1.4-1.5-2.6-2.1.8a5 5 0 0 0-2-1.2l-.3-2.2h-3l-.3 2.2a5 5 0 0 0-2 1.2l-2.1-.8-1.5 2.6 1.8 1.4a5 5 0 0 0 0 2.4l-1.8 1.4 1.5 2.6 2.1-.8a5 5 0 0 0 2 1.2l.3 2.2h3l.3-2.2a5 5 0 0 0 2-1.2l2.1.8 1.5-2.6-1.8-1.4c.05-.4.1-.8.1-1.2z"></path>
  </g>
</symbol>
<symbol id="rh-settings-fill" viewBox="0 0 20 20">
  <path class="rh-fill" d="M8.4 1.5a.6.6 0 0 0-.6.5l-.25 1.8a5.9 5.9 0 0 0-1.5.87l-1.7-.66a.6.6 0 0 0-.74.27l-1.6 2.77a.6.6 0 0 0 .14.77l1.43 1.1a5.7 5.7 0 0 0 0 1.76l-1.43 1.1a.6.6 0 0 0-.14.77l1.6 2.77a.6.6 0 0 0 .74.27l1.7-.66c.47.37.97.66 1.5.87l.25 1.8a.6.6 0 0 0 .6.5h3.2a.6.6 0 0 0 .6-.5l.25-1.8a5.9 5.9 0 0 0 1.5-.87l1.7.66a.6.6 0 0 0 .74-.27l1.6-2.77a.6.6 0 0 0-.14-.77l-1.43-1.1a5.7 5.7 0 0 0 0-1.76l1.43-1.1a.6.6 0 0 0 .14-.77l-1.6-2.77a.6.6 0 0 0-.74-.27l-1.7.66a5.9 5.9 0 0 0-1.5-.87L12.2 2a.6.6 0 0 0-.6-.5h-3.2zM10 7.5a2.5 2.5 0 1 1 0 5 2.5 2.5 0 0 1 0-5z"></path>
</symbol>



<symbol id="rh-admin" viewBox="0 0 20 20">
  <g class="rh-stroke">
    <rect x="2.5" y="8" width="15" height="9" rx="1.5"></rect>
    <path d="M6 8V5a4 4 0 0 1 8 0v3"></path>
  </g>
</symbol>

<symbol id="rh-users" viewBox="0 0 20 20">
  <g class="rh-stroke">
    <circle cx="10" cy="6" r="3"></circle>
    <path d="M3.5 17c.8-3.2 3.4-5 6.5-5s5.7 1.8 6.5 5"></path>
  </g>
</symbol>

<symbol id="rh-disputes" viewBox="0 0 20 20">
  <g class="rh-stroke">
    <path d="M10 2.5v3M10 14.5v3"></path>
    <path d="M4 6c2 0 2 2 6 2s4-2 6-2v8c-2 0-2-2-6-2s-4 2-6 2z"></path>
  </g>
</symbol>

<symbol id="rh-requests" viewBox="0 0 20 20">
  <g class="rh-stroke">
    <path d="M4 4h12v10H7l-3 3z"></path>
    <circle class="rh-fill" cx="7" cy="9" r="0.9"></circle>
    <circle class="rh-fill" cx="10" cy="9" r="0.9"></circle>
    <circle class="rh-fill" cx="13" cy="9" r="0.9"></circle>
  </g>
</symbol>

<symbol id="rh-accounting" viewBox="0 0 20 20">
  <g class="rh-stroke">
    <rect x="3" y="3" width="14" height="14" rx="1.5"></rect>
    <path d="M3 7h14M7 11h2M7 14h2M12 11h4M12 14h4"></path>
  </g>
</symbol>

<symbol id="rh-taxes" viewBox="0 0 20 20">
  <g class="rh-stroke">
    <path d="M4 3h9l4 4v10a.5.5 0 0 1-.5.5h-12A.5.5 0 0 1 4 17z"></path>
    <path d="M13 3v4h4"></path>
    <path d="M8 11l4 4M12 11l-4 4"></path>
  </g>
</symbol>

<symbol id="rh-moderation" viewBox="0 0 20 20">
  <g class="rh-stroke">
    <path d="M10 2.5L3.5 5v4.5c0 3.5 2.6 6.8 6.5 8 3.9-1.2 6.5-4.5 6.5-8V5z"></path>
    <path d="M10 7v3.5"></path>
    <circle class="rh-fill" cx="10" cy="13" r="0.9"></circle>
  </g>
</symbol>

<symbol id="rh-audit" viewBox="0 0 20 20">
  <g class="rh-stroke">
    <rect x="3" y="3" width="14" height="14" rx="1.5"></rect>
    <path d="M6 8h8M6 11h8M6 14h5"></path>
    <circle cx="14" cy="13.5" r="2.5"></circle>
    <path d="m15.8 15.3 1.2 1.2"></path>
  </g>
</symbol>



<symbol id="rh-success" viewBox="0 0 20 20">
  <g class="rh-stroke">
    <circle cx="10" cy="10" r="7.5"></circle>
    <path d="M6.5 10 9 12.5 13.5 8"></path>
  </g>
</symbol>
<symbol id="rh-success-fill" viewBox="0 0 20 20">
  <path class="rh-fill" d="M10 1.5a8.5 8.5 0 1 0 0 17 8.5 8.5 0 0 0 0-17zm3.97 7.03-4.5 4.5a.75.75 0 0 1-1.06 0l-2-2a.75.75 0 1 1 1.06-1.06l1.47 1.47 3.97-3.97a.75.75 0 1 1 1.06 1.06z"></path>
</symbol>

<symbol id="rh-warning" viewBox="0 0 20 20">
  <g class="rh-stroke">
    <path d="M10 2.5 2.5 17h15z"></path>
    <path d="M10 8v4"></path>
    <circle class="rh-fill" cx="10" cy="14.5" r="0.9"></circle>
  </g>
</symbol>
<symbol id="rh-warning-fill" viewBox="0 0 20 20">
  <path class="rh-fill" d="M10.87 2.6a1 1 0 0 0-1.74 0l-7.5 13A1 1 0 0 0 2.5 17.1h15a1 1 0 0 0 .87-1.5l-7.5-13zM10 7.5c.41 0 .75.34.75.75v4a.75.75 0 0 1-1.5 0v-4c0-.41.34-.75.75-.75zm0 7.5a.9.9 0 1 1 0-1.8.9.9 0 0 1 0 1.8z"></path>
</symbol>

<symbol id="rh-error" viewBox="0 0 20 20">
  <g class="rh-stroke">
    <circle cx="10" cy="10" r="7.5"></circle>
    <path d="m7 7 6 6M13 7l-6 6"></path>
  </g>
</symbol>
<symbol id="rh-error-fill" viewBox="0 0 20 20">
  <path class="rh-fill" d="M10 1.5a8.5 8.5 0 1 0 0 17 8.5 8.5 0 0 0 0-17zm3.28 10.72a.75.75 0 1 1-1.06 1.06L10 11.06l-2.22 2.22a.75.75 0 1 1-1.06-1.06L8.94 10 6.72 7.78a.75.75 0 1 1 1.06-1.06L10 8.94l2.22-2.22a.75.75 0 1 1 1.06 1.06L11.06 10l2.22 2.22z"></path>
</symbol>

<symbol id="rh-info" viewBox="0 0 20 20">
  <g class="rh-stroke">
    <circle cx="10" cy="10" r="7.5"></circle>
    <path d="M10 9v4"></path>
    <circle class="rh-fill" cx="10" cy="6.5" r="0.9"></circle>
  </g>
</symbol>
<symbol id="rh-info-fill" viewBox="0 0 20 20">
  <path class="rh-fill" d="M10 1.5a8.5 8.5 0 1 0 0 17 8.5 8.5 0 0 0 0-17zm0 3.75a1 1 0 1 1 0 2 1 1 0 0 1 0-2zm0 3a.75.75 0 0 1 .75.75v4.5a.75.75 0 0 1-1.5 0v-4.5c0-.41.34-.75.75-.75z"></path>
</symbol>

<symbol id="rh-blocked" viewBox="0 0 20 20">
  <g class="rh-stroke">
    <circle cx="10" cy="10" r="7.5"></circle>
    <path d="m4.7 4.7 10.6 10.6"></path>
  </g>
</symbol>

<symbol id="rh-pending" viewBox="0 0 20 20">
  <g class="rh-stroke">
    <circle cx="10" cy="10" r="7.5"></circle>
    <path d="M10 6v4l2.5 2"></path>
  </g>
</symbol>

<symbol id="rh-hourglass" viewBox="0 0 20 20">
  <g class="rh-stroke">
    <path d="M6 2.5h8v2.5l-3 5 3 5v2.5H6V15l3-5-3-5z"></path>
  </g>
</symbol>

<symbol id="rh-draft" viewBox="0 0 20 20">
  <g class="rh-stroke">
    <path d="M5 2.5h6l4 4V17a.5.5 0 0 1-.5.5h-9A.5.5 0 0 1 5 17z" stroke-dasharray="2 2"></path>
    <path d="M11 2.5V6.5h4"></path>
  </g>
</symbol>

<symbol id="rh-archive" viewBox="0 0 20 20">
  <g class="rh-stroke">
    <rect x="2.5" y="4" width="15" height="3.5" rx="1"></rect>
    <path d="M4 7.5v9a.5.5 0 0 0 .5.5h11a.5.5 0 0 0 .5-.5v-9"></path>
    <path d="M8 11h4"></path>
  </g>
</symbol>



<symbol id="rh-verify-email" viewBox="0 0 20 20">
  <g class="rh-stroke">
    <rect x="2.5" y="4" width="15" height="12" rx="1.5"></rect>
    <path d="m3 5 7 6 7-6"></path>
    <path d="m13 12 1.5 1.5L17.5 10"></path>
  </g>
</symbol>

<symbol id="rh-verify-tg" viewBox="0 0 20 20">
  <g class="rh-stroke">
    <circle cx="10" cy="10" r="7.5"></circle>
    <path d="M6 10.2 14 6.5l-1.2 7.5-3-2-1.5 1.5v-2.5z"></path>
  </g>
</symbol>

<symbol id="rh-verify-entity" viewBox="0 0 20 20">
  <g class="rh-stroke">
    <path d="M3 17V5l5-2.5V17"></path>
    <path d="M8 8h9v9"></path>
    <path d="M3 17h14"></path>
    <path d="M5 7v0M5 10v0M5 13v0M11 10.5v0M11 13v0M14 10.5v0M14 13v0"></path>
  </g>
</symbol>

<symbol id="rh-verify-bank" viewBox="0 0 20 20">
  <g class="rh-stroke">
    <path d="M2.5 8 10 3l7.5 5"></path>
    <path d="M3.5 8v8M16.5 8v8"></path>
    <path d="M6.5 9v6M10 9v6M13.5 9v6"></path>
    <path d="M2.5 17h15"></path>
  </g>
</symbol>

<symbol id="rh-passport" viewBox="0 0 20 20">
  <g class="rh-stroke">
    <rect x="4" y="2.5" width="12" height="15" rx="1.5"></rect>
    <circle cx="10" cy="9" r="2.5"></circle>
    <path d="M7 14h6"></path>
  </g>
</symbol>

<symbol id="rh-kyc" viewBox="0 0 20 20">
  <g class="rh-stroke">
    <path d="M10 2.5 3 5v4.5c0 3.6 2.8 6.7 7 8 4.2-1.3 7-4.4 7-8V5z"></path>
    <circle cx="10" cy="9" r="2"></circle>
    <path d="M6.5 14c.6-1.5 2-2.2 3.5-2.2s2.9.7 3.5 2.2"></path>
  </g>
</symbol>

<symbol id="rh-verified" viewBox="0 0 20 20">
  <g class="rh-stroke">
    <path d="m2.5 10 2-2.8-.5-3.4 3.3-1 1.9-2.8 2.6 2.2 3.4-.4 1 3.3 2.8 2-2.1 2.7.4 3.3-3.3 1-2 2.8-2.6-2.2-3.4.4-1-3.3z"></path>
    <path d="m7 10 2 2 4.5-4.5"></path>
  </g>
</symbol>



<symbol id="rh-telegram" viewBox="0 0 20 20">
  <g class="rh-stroke">
    <path d="m17 3-15 6 5 2 1 5 3-3 4 3z"></path>
    <path d="m7 11 7-6"></path>
  </g>
</symbol>
<symbol id="rh-telegram-fill" viewBox="0 0 20 20">
  <path class="rh-fill" d="M17.56 3.05a.75.75 0 0 0-.81-.17l-15 6a.75.75 0 0 0-.04 1.38l4.66 1.87.96 4.8a.75.75 0 0 0 1.27.38l2.52-2.52 3.4 2.55a.75.75 0 0 0 1.18-.45l3-13a.75.75 0 0 0-.14-.84z"></path>
</symbol>

<symbol id="rh-email" viewBox="0 0 20 20">
  <g class="rh-stroke">
    <rect x="2.5" y="4" width="15" height="12" rx="1.5"></rect>
    <path d="m3 5 7 6 7-6"></path>
  </g>
</symbol>
<symbol id="rh-email-fill" viewBox="0 0 20 20">
  <path class="rh-fill" d="M4 3.25A1.75 1.75 0 0 0 2.25 5v.32l7.75 6.64L17.75 5.3V5A1.75 1.75 0 0 0 16 3.25H4zM17.75 7.3l-7.27 6.24a.75.75 0 0 1-.96 0L2.25 7.3V15A1.75 1.75 0 0 0 4 16.75h12A1.75 1.75 0 0 0 17.75 15V7.3z"></path>
</symbol>

<symbol id="rh-push" viewBox="0 0 20 20">
  <g class="rh-stroke">
    <path d="M5 13V9a5 5 0 0 1 10 0v4l1.5 2h-13z"></path>
    <path d="M8 17a2 2 0 0 0 4 0"></path>
  </g>
</symbol>
<symbol id="rh-push-fill" viewBox="0 0 20 20">
  <path class="rh-fill" d="M10 2.25A6.75 6.75 0 0 0 3.25 9v3.76l-.85 1.13a.75.75 0 0 0 .6 1.2h14a.75.75 0 0 0 .6-1.2L16.75 12.76V9A6.75 6.75 0 0 0 10 2.25zm-2.75 14a2.75 2.75 0 0 0 5.5 0h-5.5z"></path>
</symbol>

<symbol id="rh-sms" viewBox="0 0 20 20">
  <g class="rh-stroke">
    <path d="M3 5a1 1 0 0 1 1-1h12a1 1 0 0 1 1 1v8a1 1 0 0 1-1 1H9l-3.5 3V14H4a1 1 0 0 1-1-1z"></path>
    <path d="M7 9v0M10 9v0M13 9v0"></path>
  </g>
</symbol>

<symbol id="rh-chat" viewBox="0 0 20 20">
  <g class="rh-stroke">
    <path d="M4 3.5h9a2 2 0 0 1 2 2V11a2 2 0 0 1-2 2H8l-4 3.5V13H4a2 2 0 0 1-2-2V5.5a2 2 0 0 1 2-2z"></path>
    <path d="M11.5 14.5a2 2 0 0 0 2 2h.5l3 2.5v-3h-.5a2 2 0 0 0 0-4h-.5"></path>
  </g>
</symbol>

<symbol id="rh-phone" viewBox="0 0 20 20">
  <g class="rh-stroke">
    <path d="M5.5 2.5h9a1 1 0 0 1 1 1v13a1 1 0 0 1-1 1h-9a1 1 0 0 1-1-1v-13a1 1 0 0 1 1-1z"></path>
    <path d="M4.5 14h11"></path>
    <path d="M9 16h2"></path>
  </g>
</symbol>

<symbol id="rh-call" viewBox="0 0 20 20">
  <g class="rh-stroke">
    <path d="M6 3c.5 2 1 3.5 2 5l-1.5 1.5a11 11 0 0 0 4 4L12 12c1.5 1 3 1.5 5 2v2.5a1 1 0 0 1-1 1C8.5 17 3 11.5 3 4a1 1 0 0 1 1-1z"></path>
  </g>
</symbol>

<symbol id="rh-bell" viewBox="0 0 20 20">
  <g class="rh-stroke">
    <path d="M5 13V9a5 5 0 0 1 10 0v4l1.5 2h-13z"></path>
    <path d="M8 17a2 2 0 0 0 4 0"></path>
  </g>
</symbol>
<symbol id="rh-bell-off" viewBox="0 0 20 20">
  <g class="rh-stroke">
    <path d="M5 13V9a5 5 0 0 1 8.7-3.4"></path>
    <path d="M14.8 9.2c.1.6.2 1.1.2 1.8v2l1.5 2h-10"></path>
    <path d="m2.5 2.5 15 15"></path>
    <path d="M8 17a2 2 0 0 0 4 0"></path>
  </g>
</symbol>

<symbol id="rh-megaphone" viewBox="0 0 20 20">
  <g class="rh-stroke">
    <path d="M3 10V7l12-4v14l-12-4z"></path>
    <path d="M6 11v3c0 .8.7 1.5 1.5 1.5S9 14.8 9 14v-2.3"></path>
    <path d="M17 8v4"></path>
  </g>
</symbol>



<symbol id="rh-card" viewBox="0 0 20 20">
  <g class="rh-stroke">
    <rect x="2.5" y="5" width="15" height="10" rx="2"></rect>
    <path d="M2.5 9h15"></path>
    <path d="M6 12.5h3"></path>
  </g>
</symbol>

<symbol id="rh-wallet" viewBox="0 0 20 20">
  <g class="rh-stroke">
    <path d="M3 6a2 2 0 0 1 2-2h9l3 2H5a2 2 0 0 0-2 2z"></path>
    <rect x="3" y="6" width="14" height="10" rx="1.5"></rect>
    <circle class="rh-fill" cx="14" cy="11" r="0.9"></circle>
  </g>
</symbol>

<symbol id="rh-bank" viewBox="0 0 20 20">
  <g class="rh-stroke">
    <path d="M2.5 8 10 3l7.5 5"></path>
    <path d="M3.5 8v8M16.5 8v8"></path>
    <path d="M6.5 9v6M10 9v6M13.5 9v6"></path>
    <path d="M2.5 17h15"></path>
  </g>
</symbol>

<symbol id="rh-ruble" viewBox="0 0 20 20">
  <g class="rh-stroke">
    <circle cx="10" cy="10" r="7.5"></circle>
    <path d="M8 13.5v-9h3a2.5 2.5 0 0 1 0 5H6.5M6.5 11.5H11"></path>
  </g>
</symbol>

<symbol id="rh-dollar" viewBox="0 0 20 20">
  <g class="rh-stroke">
    <circle cx="10" cy="10" r="7.5"></circle>
    <path d="M12.5 7.5c-.5-1-1.5-1.5-2.5-1.5-1.5 0-2.5.9-2.5 2 0 2.5 5 1.5 5 4 0 1.1-1 2-2.5 2-1 0-2-.5-2.5-1.5"></path>
    <path d="M10 4.5v11"></path>
  </g>
</symbol>

<symbol id="rh-coin" viewBox="0 0 20 20">
  <g class="rh-stroke">
    <circle cx="10" cy="10" r="7.5"></circle>
    <circle cx="10" cy="10" r="4.5"></circle>
  </g>
</symbol>

<symbol id="rh-coin-stack" viewBox="0 0 20 20">
  <g class="rh-stroke">
    <ellipse cx="10" cy="5" rx="6" ry="2"></ellipse>
    <path d="M4 5v3c0 1.1 2.7 2 6 2s6-.9 6-2V5"></path>
    <path d="M4 8v3c0 1.1 2.7 2 6 2s6-.9 6-2V8"></path>
    <path d="M4 11v3c0 1.1 2.7 2 6 2s6-.9 6-2v-3"></path>
  </g>
</symbol>

<symbol id="rh-receipt" viewBox="0 0 20 20">
  <g class="rh-stroke">
    <path d="M5 2.5h10v15l-2-1.5-1.5 1.5L10 16l-1.5 1.5L7 16l-2 1.5z"></path>
    <path d="M7 6h6M7 9h6M7 12h4"></path>
  </g>
</symbol>

<symbol id="rh-invoice" viewBox="0 0 20 20">
  <g class="rh-stroke">
    <path d="M5 2.5h6l4 4V17a.5.5 0 0 1-.5.5h-9A.5.5 0 0 1 5 17z"></path>
    <path d="M11 2.5V6.5h4"></path>
    <path d="M7 10h6M7 13h3"></path>
    <path d="M11.5 14.5 13 16l2-2.5"></path>
  </g>
</symbol>

<symbol id="rh-contract" viewBox="0 0 20 20">
  <g class="rh-stroke">
    <path d="M5 2.5h6l4 4V17a.5.5 0 0 1-.5.5h-9A.5.5 0 0 1 5 17z"></path>
    <path d="M11 2.5V6.5h4"></path>
    <path d="M7 13c1-.5 1.5-1.2 2-2.2.4.8.8 1.4 1.3 1.7.5.2 1-.2 1.7-1"></path>
  </g>
</symbol>

<symbol id="rh-refund" viewBox="0 0 20 20">
  <g class="rh-stroke">
    <path d="M3.5 10a6.5 6.5 0 1 0 2-4.7"></path>
    <path d="M3 3v4h4"></path>
    <path d="M10 7v3l2 1.5"></path>
  </g>
</symbol>

<symbol id="rh-transaction" viewBox="0 0 20 20">
  <g class="rh-stroke">
    <path d="M3 7h12l-2.5-2.5"></path>
    <path d="M17 13H5l2.5 2.5"></path>
  </g>
</symbol>

<symbol id="rh-deposit" viewBox="0 0 20 20">
  <g class="rh-stroke">
    <rect x="2.5" y="8" width="15" height="9" rx="1.5"></rect>
    <path d="M10 3v7"></path>
    <path d="m7 7 3 3 3-3"></path>
  </g>
</symbol>

<symbol id="rh-withdraw" viewBox="0 0 20 20">
  <g class="rh-stroke">
    <rect x="2.5" y="3" width="15" height="9" rx="1.5"></rect>
    <path d="M10 10v7"></path>
    <path d="m7 14 3 3 3-3"></path>
  </g>
</symbol>

<symbol id="rh-percent" viewBox="0 0 20 20">
  <g class="rh-stroke">
    <circle cx="6.5" cy="6.5" r="2"></circle>
    <circle cx="13.5" cy="13.5" r="2"></circle>
    <path d="M16 4 4 16"></path>
  </g>
</symbol>

<symbol id="rh-tax-doc" viewBox="0 0 20 20">
  <g class="rh-stroke">
    <path d="M5 2.5h6l4 4V17a.5.5 0 0 1-.5.5h-9A.5.5 0 0 1 5 17z"></path>
    <path d="M11 2.5V6.5h4"></path>
    <path d="M8 10.5 12 14M8 14l4-3.5"></path>
    <circle class="rh-fill" cx="8" cy="10.5" r="0.6"></circle>
    <circle class="rh-fill" cx="12" cy="14" r="0.6"></circle>
  </g>
</symbol>



<symbol id="rh-reach" viewBox="0 0 20 20">
  <g class="rh-stroke">
    <circle cx="10" cy="10" r="7.5"></circle>
    <circle cx="10" cy="10" r="4.5"></circle>
    <circle class="rh-fill" cx="10" cy="10" r="1.5"></circle>
  </g>
</symbol>

<symbol id="rh-impressions" viewBox="0 0 20 20">
  <g class="rh-stroke">
    <path d="M1.5 10C3.5 6 6.5 4 10 4s6.5 2 8.5 6c-2 4-5 6-8.5 6s-6.5-2-8.5-6z"></path>
    <circle cx="10" cy="10" r="2.2"></circle>
  </g>
</symbol>

<symbol id="rh-clicks" viewBox="0 0 20 20">
  <g class="rh-stroke">
    <path d="M4 4 9 16l2-6 6-2z"></path>
    <path d="m12 12 4 4"></path>
  </g>
</symbol>

<symbol id="rh-ctr" viewBox="0 0 20 20">
  <g class="rh-stroke">
    <path d="M3 17 17 3"></path>
    <path d="M3 7V3h4"></path>
    <path d="M17 13v4h-4"></path>
  </g>
</symbol>

<symbol id="rh-er" viewBox="0 0 20 20">
  <g class="rh-stroke">
    <path d="M10 17.5s-6-4-6-9a4 4 0 0 1 6-3.5A4 4 0 0 1 16 8.5c0 5-6 9-6 9z"></path>
    <path d="M7.5 10h5"></path>
  </g>
</symbol>

<symbol id="rh-audience" viewBox="0 0 20 20">
  <g class="rh-stroke">
    <circle cx="7" cy="7" r="2.5"></circle>
    <circle cx="13" cy="7" r="2.5"></circle>
    <path d="M2.5 15c.5-2.5 2.3-3.8 4.5-3.8s4 1.3 4.5 3.8"></path>
    <path d="M11.5 15c.5-2.5 2.3-3.8 4.5-3.8M11.5 15h6"></path>
  </g>
</symbol>

<symbol id="rh-growth" viewBox="0 0 20 20">
  <g class="rh-stroke">
    <path d="M3 14 8 9l3 3 5-6"></path>
    <path d="M12 6h4v4"></path>
  </g>
</symbol>

<symbol id="rh-decline" viewBox="0 0 20 20">
  <g class="rh-stroke">
    <path d="M3 6 8 11l3-3 5 6"></path>
    <path d="M16 10v4h-4"></path>
  </g>
</symbol>

<symbol id="rh-category" viewBox="0 0 20 20">
  <g class="rh-stroke">
    <rect x="2.5" y="2.5" width="6.5" height="6.5" rx="1"></rect>
    <rect x="11" y="2.5" width="6.5" height="6.5" rx="1"></rect>
    <rect x="2.5" y="11" width="6.5" height="6.5" rx="1"></rect>
    <circle cx="14.25" cy="14.25" r="3.25"></circle>
  </g>
</symbol>

<symbol id="rh-target" viewBox="0 0 20 20">
  <g class="rh-stroke">
    <circle cx="10" cy="10" r="7"></circle>
    <circle cx="10" cy="10" r="3.5"></circle>
    <circle class="rh-fill" cx="10" cy="10" r="1"></circle>
    <path d="M10 1.5v3M10 15.5v3M1.5 10h3M15.5 10h3"></path>
  </g>
</symbol>

<symbol id="rh-budget" viewBox="0 0 20 20">
  <g class="rh-stroke">
    <circle cx="10" cy="10" r="7.5"></circle>
    <path d="M10 2.5v7.5l6 4"></path>
  </g>
</symbol>

<symbol id="rh-heart" viewBox="0 0 20 20">
  <g class="rh-stroke">
    <path d="M10 17s-6.5-4.3-6.5-9.5a3.8 3.8 0 0 1 6.5-2.7 3.8 3.8 0 0 1 6.5 2.7c0 5.2-6.5 9.5-6.5 9.5z"></path>
  </g>
</symbol>

<symbol id="rh-play" viewBox="0 0 20 20">
  <g class="rh-stroke">
    <circle cx="10" cy="10" r="7.5"></circle>
    <path d="M8 6.5v7l5.5-3.5z"></path>
  </g>
</symbol>

<symbol id="rh-pause" viewBox="0 0 20 20">
  <g class="rh-stroke">
    <circle cx="10" cy="10" r="7.5"></circle>
    <path d="M8 7v6M12 7v6"></path>
  </g>
</symbol>



<symbol id="rh-search" viewBox="0 0 20 20">
  <g class="rh-stroke">
    <circle cx="9" cy="9" r="5"></circle>
    <path d="m13 13 3.5 3.5"></path>
  </g>
</symbol>

<symbol id="rh-filter" viewBox="0 0 20 20">
  <g class="rh-stroke">
    <path d="M3 4h14l-5 7v5l-4-1.5V11z"></path>
  </g>
</symbol>

<symbol id="rh-sort" viewBox="0 0 20 20">
  <g class="rh-stroke">
    <path d="M4 5h12M6 10h8M8 15h4"></path>
  </g>
</symbol>

<symbol id="rh-sort-asc" viewBox="0 0 20 20">
  <g class="rh-stroke">
    <path d="M4 6h10M4 10h6M4 14h3"></path>
    <path d="M15 4v12M12 7l3-3 3 3"></path>
  </g>
</symbol>

<symbol id="rh-sort-desc" viewBox="0 0 20 20">
  <g class="rh-stroke">
    <path d="M4 6h3M4 10h6M4 14h10"></path>
    <path d="M15 16V4M12 13l3 3 3-3"></path>
  </g>
</symbol>

<symbol id="rh-export" viewBox="0 0 20 20">
  <g class="rh-stroke">
    <path d="M3.5 13v2.5a1 1 0 0 0 1 1h11a1 1 0 0 0 1-1V13"></path>
    <path d="M10 3v9"></path>
    <path d="m6 7 4-4 4 4"></path>
  </g>
</symbol>

<symbol id="rh-import" viewBox="0 0 20 20">
  <g class="rh-stroke">
    <path d="M3.5 13v2.5a1 1 0 0 0 1 1h11a1 1 0 0 0 1-1V13"></path>
    <path d="M10 12V3"></path>
    <path d="m6 8 4 4 4-4"></path>
  </g>
</symbol>

<symbol id="rh-download" viewBox="0 0 20 20">
  <g class="rh-stroke">
    <path d="M10 3v10"></path>
    <path d="m6 9 4 4 4-4"></path>
    <path d="M3.5 17h13"></path>
  </g>
</symbol>

<symbol id="rh-upload" viewBox="0 0 20 20">
  <g class="rh-stroke">
    <path d="M10 14V4"></path>
    <path d="m6 8 4-4 4 4"></path>
    <path d="M3.5 17h13"></path>
  </g>
</symbol>

<symbol id="rh-copy" viewBox="0 0 20 20">
  <g class="rh-stroke">
    <rect x="7" y="7" width="10" height="10" rx="1.5"></rect>
    <path d="M13 7V4.5a1 1 0 0 0-1-1H4.5a1 1 0 0 0-1 1V12a1 1 0 0 0 1 1H7"></path>
  </g>
</symbol>

<symbol id="rh-share" viewBox="0 0 20 20">
  <g class="rh-stroke">
    <circle cx="14.5" cy="5" r="2"></circle>
    <circle cx="14.5" cy="15" r="2"></circle>
    <circle cx="5.5" cy="10" r="2"></circle>
    <path d="M7.3 9 12.7 6M7.3 11l5.4 3"></path>
  </g>
</symbol>

<symbol id="rh-link" viewBox="0 0 20 20">
  <g class="rh-stroke">
    <path d="M8.5 11.5 11.5 8.5"></path>
    <path d="m7 13-1.5 1.5a2.8 2.8 0 0 1-4-4L4 8.5"></path>
    <path d="M13 7 14.5 5.5a2.8 2.8 0 1 1 4 4L16 12"></path>
  </g>
</symbol>

<symbol id="rh-unlink" viewBox="0 0 20 20">
  <g class="rh-stroke">
    <path d="M7 13 5.5 14.5a2.8 2.8 0 0 1-4-4L4 8.5"></path>
    <path d="M13 7 14.5 5.5a2.8 2.8 0 1 1 4 4L16 12"></path>
    <path d="m2 2 16 16"></path>
  </g>
</symbol>

<symbol id="rh-delete" viewBox="0 0 20 20">
  <g class="rh-stroke">
    <path d="M3.5 5h13"></path>
    <path d="M8 5V3.5h4V5"></path>
    <path d="M5 5v11.5a1 1 0 0 0 1 1h8a1 1 0 0 0 1-1V5"></path>
    <path d="M8.5 8.5v6M11.5 8.5v6"></path>
  </g>
</symbol>

<symbol id="rh-edit" viewBox="0 0 20 20">
  <g class="rh-stroke">
    <path d="M14 3.5 16.5 6 7 15.5H4.5V13z"></path>
    <path d="m12 5.5 2.5 2.5"></path>
  </g>
</symbol>

<symbol id="rh-pin" viewBox="0 0 20 20">
  <g class="rh-stroke">
    <path d="M10 3 7.5 5.5 4 6l4 4-4.5 7.5L11 13l4 4 .5-3.5L18 10 17.5 7 15 4z"></path>
  </g>
</symbol>

<symbol id="rh-expand" viewBox="0 0 20 20">
  <g class="rh-stroke">
    <path d="M3 8V3h5M17 8V3h-5M3 12v5h5M17 12v5h-5"></path>
  </g>
</symbol>

<symbol id="rh-collapse" viewBox="0 0 20 20">
  <g class="rh-stroke">
    <path d="M8 3v5H3M12 3v5h5M8 17v-5H3M12 17v-5h5"></path>
  </g>
</symbol>

<symbol id="rh-refresh" viewBox="0 0 20 20">
  <g class="rh-stroke">
    <path d="M16.5 10a6.5 6.5 0 1 1-2-4.7"></path>
    <path d="M17 2v4h-4"></path>
  </g>
</symbol>

<symbol id="rh-more-h" viewBox="0 0 20 20">
  <g class="rh-fill">
    <circle cx="5" cy="10" r="1.4"></circle>
    <circle cx="10" cy="10" r="1.4"></circle>
    <circle cx="15" cy="10" r="1.4"></circle>
  </g>
</symbol>

<symbol id="rh-more-v" viewBox="0 0 20 20">
  <g class="rh-fill">
    <circle cx="10" cy="5" r="1.4"></circle>
    <circle cx="10" cy="10" r="1.4"></circle>
    <circle cx="10" cy="15" r="1.4"></circle>
  </g>
</symbol>

<symbol id="rh-plus" viewBox="0 0 20 20">
  <g class="rh-stroke">
    <path d="M10 4v12M4 10h12"></path>
  </g>
</symbol>

<symbol id="rh-minus" viewBox="0 0 20 20">
  <g class="rh-stroke">
    <path d="M4 10h12"></path>
  </g>
</symbol>

<symbol id="rh-check" viewBox="0 0 20 20">
  <g class="rh-stroke">
    <path d="M4 10 8 14 16 5"></path>
  </g>
</symbol>

<symbol id="rh-close" viewBox="0 0 20 20">
  <g class="rh-stroke">
    <path d="m5 5 10 10M15 5 5 15"></path>
  </g>
</symbol>

<symbol id="rh-logout" viewBox="0 0 20 20">
  <g class="rh-stroke">
    <path d="M11 3.5H4.5a.5.5 0 0 0-.5.5v12a.5.5 0 0 0 .5.5H11"></path>
    <path d="M8 10h9M14 7l3 3-3 3"></path>
  </g>
</symbol>

<symbol id="rh-login" viewBox="0 0 20 20">
  <g class="rh-stroke">
    <path d="M9 3.5h6.5a.5.5 0 0 1 .5.5v12a.5.5 0 0 1-.5.5H9"></path>
    <path d="M12 10H3M6 7l-3 3 3 3"></path>
  </g>
</symbol>

<symbol id="rh-lock" viewBox="0 0 20 20">
  <g class="rh-stroke">
    <rect x="3.5" y="9" width="13" height="8" rx="1.5"></rect>
    <path d="M6 9V6a4 4 0 0 1 8 0v3"></path>
  </g>
</symbol>

<symbol id="rh-unlock" viewBox="0 0 20 20">
  <g class="rh-stroke">
    <rect x="3.5" y="9" width="13" height="8" rx="1.5"></rect>
    <path d="M6 9V6a4 4 0 0 1 7.7-1.5"></path>
  </g>
</symbol>

<symbol id="rh-key" viewBox="0 0 20 20">
  <g class="rh-stroke">
    <circle cx="6" cy="10" r="3.5"></circle>
    <path d="M9 10h8M15 10v3M12.5 10v2"></path>
  </g>
</symbol>

<symbol id="rh-eye" viewBox="0 0 20 20">
  <g class="rh-stroke">
    <path d="M1.5 10C3.5 6 6.5 4 10 4s6.5 2 8.5 6c-2 4-5 6-8.5 6s-6.5-2-8.5-6z"></path>
    <circle cx="10" cy="10" r="2.2"></circle>
  </g>
</symbol>

<symbol id="rh-eye-off" viewBox="0 0 20 20">
  <g class="rh-stroke">
    <path d="M4 6C2.5 7.3 1.5 9 1.5 10c2 4 5 6 8.5 6 1.6 0 3-.4 4.3-1.1"></path>
    <path d="M7.5 5a9 9 0 0 1 2.5-1c3.5 0 6.5 2 8.5 6a11.5 11.5 0 0 1-2.4 2.9"></path>
    <path d="m8.5 8.5 3 3"></path>
    <path d="m2.5 2.5 15 15"></path>
  </g>
</symbol>

<symbol id="rh-bookmark" viewBox="0 0 20 20">
  <g class="rh-stroke">
    <path d="M5 3.5h10V17l-5-3-5 3z"></path>
  </g>
</symbol>

<symbol id="rh-flag" viewBox="0 0 20 20">
  <g class="rh-stroke">
    <path d="M4 3v14"></path>
    <path d="M4 4c4-1 6 1 10 0v7c-4 1-6-1-10 0z"></path>
  </g>
</symbol>

<symbol id="rh-star" viewBox="0 0 20 20">
  <g class="rh-stroke">
    <path d="M10 2.5 12.4 7.4 17.8 8.2 13.9 12 14.8 17.4 10 14.9 5.2 17.4 6.1 12 2.2 8.2 7.6 7.4z"></path>
  </g>
</symbol>
<symbol id="rh-star-fill" viewBox="0 0 20 20">
  <path class="rh-fill" d="m10.67 2.17 2.23 4.52a.75.75 0 0 0 .56.4l4.99.73a.75.75 0 0 1 .42 1.28l-3.61 3.52c-.18.17-.26.42-.22.66l.85 4.97a.75.75 0 0 1-1.09.79L10 16.69l-4.46 2.35a.75.75 0 0 1-1.09-.79l.85-4.97a.75.75 0 0 0-.22-.66L1.47 9.1a.75.75 0 0 1 .42-1.28l4.99-.73a.75.75 0 0 0 .56-.4l2.23-4.52a.75.75 0 0 1 1.34 0z"></path>
</symbol>

<symbol id="rh-zap" viewBox="0 0 20 20">
  <g class="rh-stroke">
    <path d="M11 2 4 11h5l-1 7 7-9h-5z"></path>
  </g>
</symbol>
<symbol id="rh-zap-fill" viewBox="0 0 20 20">
  <path class="rh-fill" d="M11.71 1.55a.75.75 0 0 1 .4.85L10.89 7h4.11a.75.75 0 0 1 .59 1.21l-7 9a.75.75 0 0 1-1.33-.57L8.49 13H4.25a.75.75 0 0 1-.6-1.2l7-9a.75.75 0 0 1 1.06-.25z"></path>
</symbol>

<symbol id="rh-calendar" viewBox="0 0 20 20">
  <g class="rh-stroke">
    <rect x="3" y="4.5" width="14" height="12.5" rx="1.5"></rect>
    <path d="M3 8h14"></path>
    <path d="M7 3v3M13 3v3"></path>
  </g>
</symbol>

<symbol id="rh-clock" viewBox="0 0 20 20">
  <g class="rh-stroke">
    <circle cx="10" cy="10" r="7.5"></circle>
    <path d="M10 6v4l2.5 2"></path>
  </g>
</symbol>



<symbol id="rh-anchor" viewBox="0 0 20 20">
  <g class="rh-stroke">
    <circle cx="10" cy="5" r="1.6"></circle>
    <path d="M10 6.6v10"></path>
    <path d="M6 9h8"></path>
    <path d="M3 13c0 3 3 4.5 7 4.5s7-1.5 7-4.5"></path>
  </g>
</symbol>
<symbol id="rh-anchor-fill" viewBox="0 0 20 20">
  <path class="rh-fill" d="M10 2.75a2.25 2.25 0 0 0-.75 4.37v1.13H6.5a.75.75 0 0 0 0 1.5h2.75v6.27c-2.92-.31-4.75-1.62-4.75-3.52a.75.75 0 0 0-1.5 0c0 3.38 3.62 4.95 7.25 4.95h.5c3.63 0 7.25-1.57 7.25-4.95a.75.75 0 0 0-1.5 0c0 1.9-1.83 3.21-4.75 3.52V9.75h2.75a.75.75 0 0 0 0-1.5h-2.75V7.12a2.25 2.25 0 0 0-.75-4.37z"></path>
</symbol>

<symbol id="rh-compass" viewBox="0 0 20 20">
  <g class="rh-stroke">
    <circle cx="10" cy="10" r="7.5"></circle>
  </g>
  <path class="rh-fill" d="M13.5 6.5 11.5 11.5 6.5 13.5 8.5 8.5z"></path>
</symbol>
<symbol id="rh-compass-fill" viewBox="0 0 20 20">
  <path class="rh-fill" d="M10 1.5a8.5 8.5 0 1 0 0 17 8.5 8.5 0 0 0 0-17zm4.06 5.54-2 5a.75.75 0 0 1-.42.42l-5 2a.75.75 0 0 1-.98-.98l2-5a.75.75 0 0 1 .42-.42l5-2a.75.75 0 0 1 .98.98zM10 10.9a.9.9 0 1 0 0-1.8.9.9 0 0 0 0 1.8z"></path>
</symbol>

<symbol id="rh-wave" viewBox="0 0 20 20">
  <g class="rh-stroke">
    <path d="M2 10c2 0 2-2 4-2s2 2 4 2 2-2 4-2 2 2 4 2"></path>
  </g>
</symbol>

<symbol id="rh-wave-double" viewBox="0 0 20 20">
  <g class="rh-stroke">
    <path d="M2 7c2 0 2-2 4-2s2 2 4 2 2-2 4-2 2 2 4 2"></path>
    <path d="M2 13c2 0 2-2 4-2s2 2 4 2 2-2 4-2 2 2 4 2"></path>
  </g>
</symbol>

<symbol id="rh-lighthouse" viewBox="0 0 20 20">
  <g class="rh-stroke">
    <path d="M9 7h2l1 10H8z"></path>
    <path d="M8 17h4"></path>
    <path d="M9 7V5h2v2"></path>
    <circle cx="10" cy="3.5" r="1"></circle>
    <path d="M6.5 3.5 4.5 2M13.5 3.5 15.5 2M6.5 6 4.5 6.5M13.5 6l2 .5"></path>
  </g>
</symbol>

<symbol id="rh-ship" viewBox="0 0 20 20">
  <g class="rh-stroke">
    <path d="M2 14c2 2 5 3 8 3s6-1 8-3"></path>
    <path d="M3 12V9h14v3"></path>
    <path d="M10 2v7"></path>
    <path d="M6.5 5 10 4l3.5 1"></path>
  </g>
</symbol>

<symbol id="rh-helm" viewBox="0 0 20 20">
  <g class="rh-stroke">
    <circle cx="10" cy="10" r="4"></circle>
    <circle cx="10" cy="10" r="7.5"></circle>
    <path d="M10 2.5V6M10 14v3.5M2.5 10H6M14 10h3.5M4.8 4.8 7.2 7.2M12.8 12.8l2.4 2.4M15.2 4.8 12.8 7.2M7.2 12.8l-2.4 2.4"></path>
  </g>
</symbol>

<symbol id="rh-sail" viewBox="0 0 20 20">
  <g class="rh-stroke">
    <path d="M10 2v13"></path>
    <path d="M10 3 4 14h6z"></path>
    <path d="M10 3c3 2 5 6 6 11h-6"></path>
    <path d="M6 17h8"></path>
  </g>
</symbol>

<symbol id="rh-harbor" viewBox="0 0 20 20">
  <g class="rh-stroke">
    <path d="M2 14c2 2 5 3 8 3s6-1 8-3"></path>
    <path d="M10 4v7"></path>
    <path d="M7 7a3 3 0 0 1 6 0"></path>
    <path d="M7 11h6"></path>
    <circle cx="10" cy="3" r="0.8"></circle>
  </g>
</symbol>

<symbol id="rh-seagull" viewBox="0 0 20 20">
  <g class="rh-stroke">
    <path d="M2 10c2-3 3-3 5-1 1-2 5-2 6 0 2-2 3-2 5 1"></path>
    <path d="M2 14c2-3 3-3 5-1 1-2 5-2 6 0 2-2 3-2 5 1"></path>
  </g>
</symbol>

<symbol id="rh-rope" viewBox="0 0 20 20">
  <g class="rh-stroke">
    <path d="M4 4c0 3 3 3 3 6s3 3 3 6"></path>
    <path d="M10 4c0 3 3 3 3 6s3 3 3 6"></path>
    <path d="M7 7c3 0 3 0 6 0M7 13c3 0 3 0 6 0"></path>
  </g>
</symbol>



<symbol id="rh-arrow-up" viewBox="0 0 20 20">
  <g class="rh-stroke">
    <path d="M10 4v12"></path>
    <path d="m5 9 5-5 5 5"></path>
  </g>
</symbol>
<symbol id="rh-arrow-down" viewBox="0 0 20 20">
  <g class="rh-stroke">
    <path d="M10 4v12"></path>
    <path d="m5 11 5 5 5-5"></path>
  </g>
</symbol>
<symbol id="rh-arrow-left" viewBox="0 0 20 20">
  <g class="rh-stroke">
    <path d="M16 10H4"></path>
    <path d="m9 5-5 5 5 5"></path>
  </g>
</symbol>
<symbol id="rh-arrow-right" viewBox="0 0 20 20">
  <g class="rh-stroke">
    <path d="M4 10h12"></path>
    <path d="m11 5 5 5-5 5"></path>
  </g>
</symbol>
<symbol id="rh-arrow-up-right" viewBox="0 0 20 20">
  <g class="rh-stroke">
    <path d="M5 15 15 5"></path>
    <path d="M7 5h8v8"></path>
  </g>
</symbol>
<symbol id="rh-arrow-down-right" viewBox="0 0 20 20">
  <g class="rh-stroke">
    <path d="M5 5l10 10"></path>
    <path d="M15 7v8H7"></path>
  </g>
</symbol>

<symbol id="rh-chevron-up" viewBox="0 0 20 20">
  <g class="rh-stroke">
    <path d="m5 13 5-5 5 5"></path>
  </g>
</symbol>
<symbol id="rh-chevron-down" viewBox="0 0 20 20">
  <g class="rh-stroke">
    <path d="m5 8 5 5 5-5"></path>
  </g>
</symbol>
<symbol id="rh-chevron-left" viewBox="0 0 20 20">
  <g class="rh-stroke">
    <path d="m12 5-5 5 5 5"></path>
  </g>
</symbol>
<symbol id="rh-chevron-right" viewBox="0 0 20 20">
  <g class="rh-stroke">
    <path d="m8 5 5 5-5 5"></path>
  </g>
</symbol>
<symbol id="rh-chevrons-left" viewBox="0 0 20 20">
  <g class="rh-stroke">
    <path d="m9 5-5 5 5 5"></path>
    <path d="m15 5-5 5 5 5"></path>
  </g>
</symbol>
<symbol id="rh-chevrons-right" viewBox="0 0 20 20">
  <g class="rh-stroke">
    <path d="m5 5 5 5-5 5"></path>
    <path d="m11 5 5 5-5 5"></path>
  </g>
</symbol>

<symbol id="rh-external" viewBox="0 0 20 20">
  <g class="rh-stroke">
    <path d="M11 3h6v6"></path>
    <path d="M17 3 9 11"></path>
    <path d="M15 11v5a1 1 0 0 1-1 1H4a1 1 0 0 1-1-1V6a1 1 0 0 1 1-1h5"></path>
  </g>
</symbol>

</svg>