<svg xmlns="http://www.w3.org/2000/svg" viewBox="0 0 988 200" width="988" height="200">
  <g id="icon" transform="translate(30.00, 20.00) scale(0.6809)">
    <g fill="#00AEEE" fill-rule="evenodd" transform="translate(0, 235) scale(0.1, -0.1)">
      <path d="M95 2173 c-7 -5 -9 -175 -7 -485 l4 -478 64 0 64 0 0 240 0 240 235
0 c272 0 291 -5 377 -93 38 -38 52 -63 69 -120 20 -64 21 -77 10 -132 -22
-105 -83 -179 -189 -228 -44 -20 -63 -22 -262 -23 -212 0 -216 0 -288 -28 -81
-32 -93 -47 -90 -116 2 -60 9 -65 56 -41 96 49 248 64 357 35 149 -38 275
-144 403 -338 123 -188 195 -271 299 -346 102 -73 192 -117 318 -156 85 -26
103 -27 328 -32 l237 -4 -2 1054 -3 1053 -107 -1 c-85 -1 -120 -6 -170 -24
-211 -76 -338 -260 -338 -488 0 -125 30 -200 133 -334 67 -88 94 -157 82 -205
-13 -53 -14 -53 -211 -53 -101 0 -184 2 -184 4 0 2 18 35 40 74 104 181 107
432 6 634 -91 180 -245 305 -452 365 -86 25 -99 26 -429 30 -187 2 -344 0
-350 -4z m654 -138 c182 -28 304 -97 404 -228 78 -103 110 -203 109 -347 -1
-149 -35 -236 -134 -342 l-44 -48 -87 0 c-48 0 -87 4 -87 8 0 4 15 23 34 41
19 18 48 63 65 100 97 211 8 462 -200 562 -84 41 -143 49 -374 49 l-215 0 0
104 0 105 28 4 c64 10 421 4 501 -8z m1189 -477 l-3 -483 -64 -3 -64 -3 6 43
c13 97 -29 206 -116 304 -55 61 -81 112 -97 187 -37 180 79 377 250 423 25 7
55 13 68 13 l22 1 -2 -482z m2 -989 l0 -372 -142 6 c-178 7 -268 29 -408 99
-91 45 -118 65 -201 148 -72 71 -114 124 -168 212 -42 68 -104 151 -148 198
l-75 80 571 0 571 0 0 -371z"/>
      <path d="M123 859 c-18 -5 -33 -15 -34 -22 -1 -8 0 -644 1 -759 0 -5 151 -8
335 -8 l335 0 0 104 c0 240 -56 396 -188 525 -43 43 -104 90 -138 108 -102 54
-230 75 -311 52z m233 -164 c153 -74 258 -242 266 -425 l3 -65 -202 -3 -203
-2 0 266 0 267 43 -7 c23 -4 65 -18 93 -31z"/>
    </g>
  </g>
  <text id="wordmark" x="238" y="137"
        font-family="-apple-system, BlinkMacSystemFont, 'Segoe UI', Inter, Roboto, sans-serif"
        font-size="110" font-weight="600" letter-spacing="-2">
    <tspan fill="#00AEEE">Rek</tspan><tspan fill="#0C121A">Harbor</tspan>
  </text>
</svg>